<svg xmlns="http://www.w3.org/2000/svg" xml:space="preserve" width="100mm" height="359.801" shape-rendering="geometricPrecision" text-rendering="geometricPrecision" image-rendering="optimizeQuality" fill-rule="evenodd" clip-rule="evenodd" viewBox="0 0 229626 218598"><defs><linearGradient id="a" gradientUnits="userSpaceOnUse" x1="114813" y1="237203" x2="114813" y2="8689.96"><stop offset="0" stop-color="#9CFFAC"/><stop offset="1" stop-color="#00B59C"/></linearGradient></defs><path fill="#00AA96" d="m114813 214238-2051-1609c-4924-3801-13083-9835-16244-13186-12787-13549-30555-33136-41966-61029-11410-27899-14248-55947-14615-74568-327-16358 1112-29263 3789-44910l8728 6295c466 339 11597 8420 25459 23109 11063 11719 25751 29765 36900 52476 11149-22711 25837-40757 36900-52476 13862-14689 24993-22770 25459-23109l8728-6295c2677 15647 4116 28552 3789 44910-367 18621-3205 46669-14615 74568-11411 27893-29179 47480-41966 61029-3161 3351-11321 9385-16244 13186l-2051 1609z"/><path fill="url(#a)" d="M745 74579 0 63852l9970 4059c1748 708 39911 16531 69700 51729-46-1642-77-3292-77-4957 0-41384 13560-79970 35220-114683 21660 34713 35220 73299 35220 114683 0 1665-31 3315-77 4957 29789-35198 67952-51021 69700-51729l9970-4059-745 10727c-13002 192025-215134 192025-228136 0zM114813 0"/><path fill="#00AA96" d="M102997 172300c-2734 0-3843 1058-3843 3673 0 6355 7029 11522 15666 11522 8636 0 15643-5166 15643-11522 0-2609-1110-3668-3838-3668-1452 48-2918 202-4350 441l-136 22c-2415 397-4881 622-7323 666-2442-44-4915-271-7330-667-1481-255-2989-416-4489-468v1z"/><circle fill="#00AA96" cx="74853" cy="160408" r="12597"/><circle fill="#00AA96" cx="154752" cy="160408" r="12597"/></svg>