<svg width="112" height="80" fill="none" xmlns="http://www.w3.org/2000/svg"><path d="M46.425 34.628a4.437 4.437 0 00-3.648.362L2.19 58.5l-.045.026C.091 59.79-.565 62.132.513 64.352c1.344 2.767 6.105 5.373 11.847 6.483 2.09.401 4.215.601 6.344.598 4.571 0 10.183-.9 16.396-3.797 4.826-2.25 9.416-7.164 12.276-13.147 3.015-6.304 3.612-12.662 1.638-17.445a4.287 4.287 0 00-2.589-2.416zM109.336 58.526l-.045-.027-40.585-23.51a4.435 4.435 0 00-3.65-.361 4.283 4.283 0 00-2.59 2.416c-1.972 4.783-1.377 11.141 1.639 17.445 2.86 5.982 7.45 10.896 12.274 13.147 6.215 2.897 11.826 3.797 16.396 3.797a33.447 33.447 0 006.345-.598c5.742-1.11 10.503-3.715 11.847-6.483 1.079-2.22.423-4.561-1.631-5.826z" fill="#7CE0D6"/><path fill-rule="evenodd" clip-rule="evenodd" d="M39.178 1.942C39.178.869 40.047 0 41.119 0a12.657 12.657 0 0112.657 12.657 1.942 1.942 0 01-3.883 0 8.773 8.773 0 00-8.774-8.773 1.942 1.942 0 01-1.941-1.942zM70.607 3.884a8.773 8.773 0 00-8.773 8.773 1.942 1.942 0 11-3.884 0A12.656 12.656 0 0170.607 0a1.942 1.942 0 110 3.884z" fill="#2C3437"/><path d="M74.885 67.993H32.937L51.992 78.99a7.485 7.485 0 007.503.004l19.063-11.002h-3.673zM80.764 43.704H28.776v12.603h53.93V43.704h-1.942z" fill="#2C3437"/><path d="M78.965 32.29l-.471-.272H33.002l-.473.273a7.52 7.52 0 00-3.752 6.484v4.929h53.93v-4.928a7.539 7.539 0 00-3.742-6.486zM80.764 56.307H28.776v4.954a7.531 7.531 0 003.755 6.498l.406.235h45.622l.413-.24a7.545 7.545 0 003.733-6.492v-4.954h-1.94z" fill="#FFDD0F"/><path d="M59.497 21.055A7.48 7.48 0 0052 21.054L33.002 32.018h45.492L59.497 21.055z" fill="#2C3437"/></svg>