<svg width="24" height="20" fill="none" xmlns="http://www.w3.org/2000/svg"><path fill-rule="evenodd" clip-rule="evenodd" d="M23.928 4.91c0-2.884-1.508-4.57-4.24-4.57H4.844C2.11.34.423 2.026.423 4.91v10.447c0 2.884 1.688 4.57 4.42 4.57h14.845c2.732 0 4.24-1.686 4.24-4.57V4.91zm-1.766 10.447H2.37c0 1.442 1.107 2.611 2.474 2.611h14.844c1.365 0 2.474-1.169 2.474-2.611zM2.37 11.603v1.795h19.792v-1.795H2.37zm19.792-1.959V4.91c0-1.441-1.109-2.611-2.474-2.611H4.844c-1.367 0-2.474 1.17-2.474 2.611v4.734h19.792z" fill="#637381"/></svg>