<svg width="164" height="37" viewBox="0 0 164 37" fill="none" xmlns="http://www.w3.org/2000/svg">
    <path d="M11.434 23L10.538 20.466H6.716L5.862 23H4.84L8.242 13.2H8.998L12.428 23H11.434ZM10.244 19.598L8.9 15.678C8.75067 15.258 8.65733 14.964 8.62 14.796L8.508 15.16C8.44267 15.412 8.39133 15.5847 8.354 15.678L7.01 19.598H10.244ZM18.8695 23V22.314C18.6269 22.6313 18.3655 22.8553 18.0855 22.986C17.8149 23.1073 17.4835 23.168 17.0915 23.168C16.1675 23.168 15.4955 22.9067 15.0755 22.384C14.6649 21.8613 14.4595 21.012 14.4595 19.836V15.846H15.4395V20.214C15.4395 20.9233 15.5889 21.446 15.8875 21.782C16.1862 22.118 16.5875 22.286 17.0915 22.286C18.2769 22.286 18.8695 21.6047 18.8695 20.242V15.846H19.8495V23H18.8695ZM24.8275 23.168C23.9128 23.168 23.1895 22.832 22.6575 22.16C22.1348 21.4787 21.8735 20.564 21.8735 19.416C21.8735 18.2493 22.1348 17.3347 22.6575 16.672C23.1895 16.0093 23.9128 15.678 24.8275 15.678C25.5368 15.678 26.1715 15.902 26.7315 16.35V13.382L27.7115 12.892V23H26.7315V22.384C26.2088 22.9067 25.5742 23.168 24.8275 23.168ZM24.9395 22.286C25.3035 22.286 25.6442 22.188 25.9615 21.992C26.2788 21.796 26.5355 21.5207 26.7315 21.166V17.596C26.3022 16.9053 25.7048 16.56 24.9395 16.56C24.2862 16.56 23.7822 16.8073 23.4275 17.302C23.0728 17.7967 22.8955 18.5013 22.8955 19.416C22.8955 20.2373 23.0822 20.9233 23.4555 21.474C23.8288 22.0153 24.3235 22.286 24.9395 22.286ZM31.1908 14.194C31.0695 14.3153 30.9155 14.376 30.7288 14.376C30.5422 14.376 30.3882 14.3153 30.2668 14.194C30.1455 14.0727 30.0848 13.9187 30.0848 13.732C30.0848 13.5453 30.1455 13.3867 30.2668 13.256C30.3975 13.1253 30.5515 13.06 30.7288 13.06C30.9155 13.06 31.0695 13.1253 31.1908 13.256C31.3122 13.3867 31.3728 13.5453 31.3728 13.732C31.3728 13.9187 31.3122 14.0727 31.1908 14.194ZM30.2388 23V15.846H31.2188V23H30.2388ZM35.5442 23.168C34.6015 23.168 34.1302 22.622 34.1302 21.53V16.728H32.9122V15.846H34.1302V13.382L35.1102 12.892V15.846H36.9302V16.728H35.1102V21.11C35.1102 21.474 35.1615 21.754 35.2642 21.95C35.3669 22.146 35.5722 22.244 35.8802 22.244C36.1882 22.244 36.5475 22.104 36.9582 21.824L36.8462 22.846C36.4449 23.0607 36.0109 23.168 35.5442 23.168ZM41.4014 23.168C40.4681 23.168 39.7168 22.804 39.1474 22.076C38.5781 21.348 38.2934 20.4613 38.2934 19.416C38.2934 18.2493 38.5781 17.3347 39.1474 16.672C39.7168 16.0093 40.4681 15.678 41.4014 15.678C42.2228 15.678 42.8994 15.972 43.4314 16.56C43.9634 17.1387 44.2294 17.9973 44.2294 19.136C44.2294 19.388 44.2201 19.6167 44.2014 19.822H39.3294C39.4134 20.5687 39.6374 21.1613 40.0014 21.6C40.3654 22.0387 40.8461 22.258 41.4434 22.258C42.0128 22.258 42.5494 22.0713 43.0534 21.698L43.5854 22.356C42.9321 22.8973 42.2041 23.168 41.4014 23.168ZM39.3014 18.94H43.2354C43.2261 18.072 43.0348 17.4607 42.6614 17.106C42.2974 16.742 41.8774 16.56 41.4014 16.56C40.8041 16.56 40.3141 16.7607 39.9314 17.162C39.5488 17.5633 39.3388 18.156 39.3014 18.94ZM48.6576 23.168C47.7429 23.168 47.0196 22.832 46.4876 22.16C45.9649 21.4787 45.7036 20.564 45.7036 19.416C45.7036 18.2493 45.9649 17.3347 46.4876 16.672C47.0196 16.0093 47.7429 15.678 48.6576 15.678C49.3669 15.678 50.0016 15.902 50.5616 16.35V13.382L51.5416 12.892V23H50.5616V22.384C50.0389 22.9067 49.4043 23.168 48.6576 23.168ZM48.7696 22.286C49.1336 22.286 49.4743 22.188 49.7916 21.992C50.1089 21.796 50.3656 21.5207 50.5616 21.166V17.596C50.1323 16.9053 49.5349 16.56 48.7696 16.56C48.1163 16.56 47.6123 16.8073 47.2576 17.302C46.9029 17.7967 46.7256 18.5013 46.7256 19.416C46.7256 20.2373 46.9123 20.9233 47.2856 21.474C47.6589 22.0153 48.1536 22.286 48.7696 22.286ZM60.2495 23.168C59.9322 23.168 59.6382 23.1213 59.3675 23.028C59.1062 22.9347 58.9055 22.8413 58.7655 22.748C58.6348 22.6547 58.4668 22.524 58.2615 22.356V23H57.2815V13.382L58.2615 12.892V16.546C58.4948 16.2847 58.7842 16.0747 59.1295 15.916C59.4748 15.7573 59.8202 15.678 60.1655 15.678C61.0708 15.678 61.7895 16.0093 62.3215 16.672C62.8535 17.3347 63.1195 18.2493 63.1195 19.416C63.1195 20.62 62.8675 21.5487 62.3635 22.202C61.8595 22.846 61.1548 23.168 60.2495 23.168ZM60.0955 22.286C60.7582 22.286 61.2575 22.034 61.5935 21.53C61.9295 21.026 62.0975 20.3213 62.0975 19.416C62.0975 18.492 61.9295 17.7873 61.5935 17.302C61.2575 16.8073 60.7582 16.56 60.0955 16.56C59.6942 16.56 59.3255 16.6767 58.9895 16.91C58.6628 17.134 58.4202 17.3813 58.2615 17.652V21.166C58.4575 21.502 58.7235 21.7727 59.0595 21.978C59.3955 22.1833 59.7408 22.286 60.0955 22.286ZM65.9968 25.716L67.0608 22.776L64.4428 15.846H65.4368L67.2428 20.928C67.2708 21.0213 67.3128 21.152 67.3688 21.32C67.4248 21.488 67.4621 21.6 67.4808 21.656L67.7328 20.928L69.5668 15.846H70.6168L66.9628 25.716H65.9968Z" fill="#969BA0"/>
    <path fill-rule="evenodd" clip-rule="evenodd" d="M93.5403 11.9347L93.6413 12.5439C93.7208 13.1106 93.7577 13.6825 93.7516 14.2547C93.7509 15.5193 93.598 16.7792 93.2963 18.0074C92.8881 19.6759 92.1773 21.2558 91.1989 22.6688C90.0683 24.2916 88.4336 25.8877 86.0507 27.1701L85.7592 27.3269L85.4677 27.1701C83.0848 25.8877 81.4508 24.2916 80.3195 22.6688C79.3411 21.2558 78.6303 19.6759 78.2222 18.0074C77.9204 16.7794 77.7676 15.5197 77.7668 14.2554C77.7607 13.6832 77.7976 13.1113 77.8772 12.5446L77.9781 11.9354C77.9867 11.8857 77.9854 11.8348 77.9742 11.7856C77.9631 11.7364 77.9422 11.69 77.913 11.6489C77.8837 11.6078 77.8466 11.5728 77.8037 11.5461C77.7609 11.5194 77.7132 11.5014 77.6633 11.4932C77.6135 11.4849 77.5625 11.4866 77.5133 11.4981C77.4641 11.5097 77.4177 11.5308 77.3768 11.5603C77.3358 11.5898 77.3011 11.6271 77.2746 11.6701C77.2482 11.713 77.2305 11.7608 77.2226 11.8106L77.1216 12.4198C77.0348 13.0277 76.9944 13.6414 77.0006 14.2554C77.0011 15.582 77.1614 16.9038 77.478 18.1922C77.909 19.9517 78.6593 21.6175 79.6917 23.1072C80.8852 24.8214 82.6161 26.5069 85.1073 27.8447L85.5807 28.0989C85.6364 28.129 85.6988 28.1448 85.7622 28.1448C85.8256 28.1448 85.888 28.129 85.9437 28.0989L86.4164 27.8447C88.9049 26.5062 90.6366 24.8214 91.832 23.1072C92.8639 21.6176 93.6138 19.952 94.0444 18.1929C94.361 16.9044 94.5213 15.5827 94.5218 14.2561C94.528 13.642 94.4876 13.0284 94.4008 12.4205L94.2998 11.8112C94.2919 11.7614 94.2743 11.7137 94.2478 11.6707C94.2213 11.6278 94.1866 11.5905 94.1457 11.561C94.1047 11.5315 94.0583 11.5103 94.0091 11.4988C93.9599 11.4873 93.9089 11.4856 93.8591 11.4938C93.8092 11.5021 93.7615 11.5201 93.7187 11.5468C93.6758 11.5735 93.6387 11.6084 93.6094 11.6495C93.5802 11.6906 93.5594 11.7371 93.5482 11.7863C93.537 11.8354 93.5357 11.8863 93.5443 11.936L93.5403 11.9347Z" fill="#969BA0"/>
    <path fill-rule="evenodd" clip-rule="evenodd" d="M80.0702 11.5196L85.76 9.7847L91.5767 11.5569C91.6741 11.586 91.779 11.5754 91.8686 11.5274C91.9581 11.4794 92.025 11.398 92.0545 11.3009C92.0841 11.2038 92.0739 11.099 92.0262 11.0095C91.9785 10.9199 91.8972 10.8528 91.8 10.8229L85.8716 9.01669C85.7988 8.99444 85.7211 8.99444 85.6483 9.01669L79.8462 10.7842C79.7978 10.7987 79.7526 10.8226 79.7134 10.8545C79.6742 10.8864 79.6417 10.9258 79.6177 10.9703C79.5938 11.0148 79.5789 11.0636 79.5739 11.1138C79.5689 11.1641 79.5739 11.2148 79.5886 11.2631C79.6033 11.3115 79.6274 11.3564 79.6596 11.3954C79.6917 11.4344 79.7313 11.4667 79.776 11.4904C79.8207 11.5141 79.8696 11.5288 79.92 11.5335C79.9704 11.5383 80.0212 11.5331 80.0696 11.5182L80.0702 11.5196Z" fill="#969BA0"/>
    <path fill-rule="evenodd" clip-rule="evenodd" d="M77.2607 12.0466L85.4176 27.9352C85.4494 27.9973 85.4976 28.0496 85.557 28.0862C85.6165 28.1229 85.6848 28.1426 85.7547 28.1432C85.8246 28.1438 85.8933 28.1253 85.9534 28.0897C86.0135 28.0541 86.0626 28.0028 86.0955 27.9413L91.0698 18.6564L91.0772 18.6417L94.261 12.0359C94.3042 11.9447 94.3096 11.8403 94.276 11.7452C94.2423 11.6501 94.1725 11.5721 94.0816 11.5281C93.9907 11.4842 93.886 11.4778 93.7904 11.5104C93.6948 11.543 93.616 11.612 93.5711 11.7023L90.3926 18.3028L85.7699 26.937L77.942 11.6969C77.9195 11.6517 77.8881 11.6114 77.8498 11.5783C77.8115 11.5452 77.7671 11.52 77.7189 11.5042C77.6708 11.4884 77.6201 11.4823 77.5696 11.4863C77.5191 11.4902 77.4699 11.5041 77.4248 11.5271C77.3797 11.5502 77.3397 11.5819 77.307 11.6205C77.2743 11.6591 77.2496 11.7038 77.2343 11.752C77.2191 11.8002 77.2136 11.8509 77.2181 11.9013C77.2226 11.9516 77.2371 12.0005 77.2607 12.0452V12.0466Z" fill="#969BA0"/>
    <path fill-rule="evenodd" clip-rule="evenodd" d="M81.165 19.1228H90.2358C90.3373 19.1228 90.4347 19.0826 90.5065 19.011C90.5782 18.9393 90.6186 18.8421 90.6186 18.7408C90.6186 18.6395 90.5782 18.5424 90.5065 18.4707C90.4347 18.3991 90.3373 18.3588 90.2358 18.3588H81.165C81.0635 18.3588 80.9661 18.3991 80.8943 18.4707C80.8226 18.5424 80.7822 18.6395 80.7822 18.7408C80.7822 18.8421 80.8226 18.9393 80.8943 19.011C80.9661 19.0826 81.0635 19.1228 81.165 19.1228ZM106.466 15.8266H100.565C100.463 15.8271 100.365 15.8678 100.293 15.9398C100.221 16.0117 100.18 16.1092 100.18 16.2109V20.9378C100.18 21.0395 100.221 21.1368 100.293 21.2088C100.365 21.2807 100.463 21.3214 100.565 21.3221H106.466V22.1228H100.565C100.409 22.1235 100.255 22.0934 100.111 22.0343C99.967 21.9752 99.8361 21.8881 99.7261 21.7783C99.616 21.6684 99.5288 21.5379 99.4695 21.3942C99.4103 21.2505 99.3801 21.0965 99.3808 20.9411V16.2143C99.3801 16.0589 99.4103 15.9049 99.4695 15.7612C99.5288 15.6175 99.616 15.487 99.7261 15.3771C99.8361 15.2672 99.967 15.1802 100.111 15.1211C100.255 15.0619 100.409 15.0319 100.565 15.0326H106.466V15.8266ZM117.547 15.0286V15.8293H111.863V18.1693H116.431V18.9767H111.863V21.3208H117.546V22.1215H111.06V15.0286H117.547Z" fill="#969BA0"/>
    <path d="M129.249 16.2203V18.2981C129.25 18.4535 129.22 18.6074 129.16 18.7511C129.101 18.8947 129.014 19.0252 128.904 19.1351C128.794 19.2449 128.663 19.332 128.519 19.3911C128.375 19.4503 128.221 19.4804 128.065 19.4798H126.98L129.21 22.1188H128.154L125.934 19.4798H123.326C123.197 19.4733 123.069 19.4601 122.941 19.4405V22.1188H122.139V15.0386H128.059C128.215 15.038 128.369 15.0681 128.513 15.1273C128.657 15.1864 128.788 15.2735 128.898 15.3833C129.008 15.4932 129.095 15.6237 129.154 15.7673C129.214 15.911 129.244 16.0649 129.243 16.2203H129.249ZM123.329 18.6725H128.065C128.115 18.6731 128.164 18.6638 128.209 18.6452C128.255 18.6266 128.297 18.5991 128.332 18.5642C128.367 18.5293 128.394 18.4878 128.413 18.4421C128.432 18.3964 128.441 18.3475 128.44 18.2981V16.2203C128.441 16.1702 128.432 16.1205 128.413 16.074C128.395 16.0275 128.367 15.9852 128.332 15.9494C128.298 15.9128 128.256 15.8837 128.21 15.8642C128.164 15.8446 128.114 15.835 128.064 15.836H123.328C123.226 15.8365 123.128 15.8771 123.056 15.9491C122.984 16.0211 122.944 16.1185 122.943 16.2203V18.2981C122.942 18.3481 122.952 18.3977 122.971 18.4437C122.991 18.4897 123.02 18.5311 123.057 18.565C123.093 18.6001 123.135 18.6277 123.182 18.6461C123.229 18.6645 123.279 18.6735 123.329 18.6725Z" fill="#969BA0"/>
    <path fill-rule="evenodd" clip-rule="evenodd" d="M133.493 15.0286H140.594V15.8293H137.452V22.1221H136.65V15.8293H133.493V15.0286ZM144.899 22.1188V15.0286H145.701V22.1188H144.899ZM156.365 15.0286H157.391L154.421 18.5737L157.401 22.1188H156.365L153.72 18.9774H151.431V22.1188H150.623V15.0286H151.432V18.1693H153.722L156.365 15.0286Z" fill="#969BA0"/>
    <path d="M1 36H163" stroke="#969BA0" stroke-linecap="round" stroke-linejoin="round"/>
    <path d="M1 1H163" stroke="#969BA0" stroke-linecap="round" stroke-linejoin="round"/>
</svg>
