<svg width="176" height="138" fill="none" xmlns="http://www.w3.org/2000/svg"><ellipse cx="88" cy="121.5" rx="88" ry="16.5" fill="#D8FDF8"/><path d="M129.654 23.208l.004.002a14.611 14.611 0 015.291 5.331 14.78 14.78 0 011.968 7.275v.004l.137 40.804v.002a14.799 14.799 0 01-1.912 7.29 14.63 14.63 0 01-5.246 5.375l-.006.003-34.933 20.518 34.697-86.604zm0 0L94.603 2.942s0 0 0 0A14.34 14.34 0 0087.355 1a14.34 14.34 0 00-7.235 1.987s0 0 0 0m49.533 20.221L80.121 2.988m0 0L45.197 23.5h-.001a14.586 14.586 0 00-5.27 5.359A14.752 14.752 0 0038 36.149v.004l.138 40.804v.003a14.768 14.768 0 001.97 7.294 14.6 14.6 0 005.314 5.336l.002.001 35.04 20.263-.343-106.866zm7.595 108.811a14.357 14.357 0 01-7.25-1.944l7.25 1.944zm0 0a14.353 14.353 0 007.24-1.987l-7.24 1.987z" fill="url(#paint0_linear)" stroke="#80E2D6" stroke-width="2"/><path d="M129.654 34.602l.004.002a14.612 14.612 0 015.291 5.33 14.78 14.78 0 011.968 7.276v.003l.137 40.804v.003a14.798 14.798 0 01-1.912 7.29 14.634 14.634 0 01-5.246 5.375l-.006.003-34.933 20.518 34.697-86.604zm0 0L94.603 14.335s0 0 0 0a14.34 14.34 0 00-7.247-1.941 14.341 14.341 0 00-7.235 1.987s0 0 0 0m49.533 20.22l-49.533-20.22m0 0L45.197 34.893h-.001a14.587 14.587 0 00-5.27 5.36A14.752 14.752 0 0038 47.542v.004l.138 40.804v.002a14.768 14.768 0 001.97 7.294 14.601 14.601 0 005.314 5.337l.002.001 35.04 20.262-.343-106.866zm7.595 108.811a14.337 14.337 0 01-7.25-1.944l7.25 1.944zm0 0a14.352 14.352 0 007.24-1.986l-7.24 1.986z" fill="url(#paint1_radial)" stroke="#80E2D6" stroke-width="2"/><path d="M66.157 46.574h-2.136l1.368 1.64 16.126 19.337-16.062 19.26-1.368 1.64H76.108l.3-.359L87.526 74.76l11.12 13.333.299.36h12.023l-1.368-1.64L93.538 67.55l16.126-19.336 1.369-1.64H99.009l-.3.359-11.182 13.409-11.183-13.41-.3-.359h-9.887z" fill="#9EE9DF" stroke="#80E2D6" stroke-width="2"/><path fill-rule="evenodd" clip-rule="evenodd" d="M139.5 56c14.083 0 25.5-11.417 25.5-25.5S153.583 5 139.5 5 114 16.417 114 30.5 125.417 56 139.5 56z" fill="#FF6969"/><path fill-rule="evenodd" clip-rule="evenodd" d="M139.5 56c14.083 0 25.5-11.417 25.5-25.5S153.583 5 139.5 5 114 16.417 114 30.5 125.417 56 139.5 56z" fill="#FF6F6F"/><path d="M132.78 37.22h0a1.009 1.009 0 010-1.426s0 0 0 0l5.294-5.294-5.294-5.293a1.009 1.009 0 010-1.427v13.44zm0 0a1.007 1.007 0 001.426 0l5.294-5.294 5.293 5.294a1.007 1.007 0 001.427 0 1.008 1.008 0 000-1.426s0 0 0 0l-5.294-5.294 5.294-5.293s0 0 0 0a1.008 1.008 0 10-1.427-1.427l-5.293 5.294-5.294-5.294s0 0 0 0a1.008 1.008 0 00-1.426 0v13.44z" fill="#fff" stroke="#fff" stroke-width=".3"/><defs><radialGradient id="paint1_radial" cx="0" cy="0" r="1" gradientUnits="userSpaceOnUse" gradientTransform="matrix(28.93801 145.04852 -169.57713 33.83161 87.527 39.467)"><stop stop-color="#fff"/><stop offset="1" stop-color="#80E2D6"/></radialGradient><linearGradient id="paint0_linear" x1="112.013" y1="52.833" x2="126.916" y2="-24.353" gradientUnits="userSpaceOnUse"><stop stop-color="#82E3D6"/><stop offset="1" stop-color="#fff"/></linearGradient></defs></svg>