<svg width="33" height="33" fill="none" xmlns="http://www.w3.org/2000/svg"><path d="M33 16.5C33 25.613 25.613 33 16.5 33S0 25.613 0 16.5 7.387 0 16.5 0 33 7.387 33 16.5z" fill="#BFBFBF"/><path d="M22.185 9.075h-11.37c-.96 0-1.74.76-1.74 1.7v11.154c0 .94.78 1.7 1.74 1.7h9.622l-.45-1.527 1.087.982 1.026.924 1.825 1.567v-14.8c0-.94-.78-1.7-1.74-1.7zM18.91 19.85s-.306-.355-.56-.669c1.111-.305 1.536-.981 1.536-.981a4.91 4.91 0 01-.976.486 5.704 5.704 0 01-1.23.355 6.111 6.111 0 01-2.198-.008c-.484-.09-.9-.223-1.248-.355a5.042 5.042 0 01-.62-.28c-.025-.017-.05-.025-.075-.042-.018-.008-.026-.016-.034-.024a2.992 2.992 0 01-.238-.14s.407.66 1.485.973c-.255.313-.569.685-.569.685-1.875-.058-2.588-1.254-2.588-1.254 0-2.657 1.222-4.81 1.222-4.81 1.222-.891 2.385-.866 2.385-.866l.085.099c-1.528.429-2.232 1.08-2.232 1.08s.187-.099.5-.239c.908-.388 1.63-.495 1.927-.52.05-.008.093-.016.144-.016a7.383 7.383 0 011.714-.017c.806.091 1.672.322 2.554.792 0 0-.67-.618-2.113-1.047l.12-.132s1.162-.025 2.384.866c0 0 1.222 2.153 1.222 4.81 0 0-.722 1.196-2.597 1.254zm-3.946-3.853c-.484 0-.866.412-.866.916 0 .503.39.915.866.915.484 0 .866-.412.866-.915.008-.504-.382-.916-.866-.916zm3.097 0c-.483 0-.865.412-.865.916 0 .503.39.915.865.915.484 0 .866-.412.866-.915 0-.504-.382-.916-.866-.916z" fill="#fff"/></svg>