<svg width="50" height="50" fill="none" xmlns="http://www.w3.org/2000/svg"><circle cx="25" cy="25" r="25" fill="url(#paint0_linear)"/><path d="M18.615 14.778a2.658 2.658 0 014.179.546 2.656 2.656 0 014.001 3.273 2.658 2.658 0 01.948 3.896l6.205 6.204c.945.945.765 2.51-.242 3.517-.963.963-2.437 1.17-3.39.36l-.127-.118-6.205-6.204a2.659 2.659 0 01-3.772-.73c.396 1.87.172 3.398-.738 4.53l-.142.167c-1.195 1.335-.593 3.916 1.269 3.916 2.14 0 2.792-2.572.978-3.505a1 1 0 11.915-1.779c3.694 1.9 2.329 7.284-1.893 7.284-3.79 0-4.932-4.604-2.877-7.113l.118-.137c.61-.68.741-1.801.298-3.438a2.658 2.658 0 01-1.325-4.146 2.658 2.658 0 01-.545-4.178l2.345-2.345zm7.74 9.155l-.93.93 6.178 6.179c.083.083.4.046.689-.242.259-.26.314-.543.263-.657l-.021-.032-6.18-6.178zm-.316-3.442a.658.658 0 00-.93 0l-3.126 3.126a.658.658 0 00.93.93l3.126-3.125a.658.658 0 000-.93zm-1.172-3.517a.658.658 0 00-.93 0l-5.471 5.471a.658.658 0 00.93.93l5.471-5.47a.658.658 0 000-.93zm-3.908-.781a.658.658 0 00-.93 0l-2.345 2.344a.658.658 0 10.93.93l2.345-2.344a.658.658 0 000-.93z" fill="#2C3437" fill-opacity=".8"/><defs><linearGradient id="paint0_linear" x1="50" y1="0" x2="-1.246" y2="1.312" gradientUnits="userSpaceOnUse"><stop stop-color="#AAF5D4"/><stop offset="1" stop-color="#7CE0D6"/></linearGradient></defs></svg>