<svg width="25" height="27" fill="none" xmlns="http://www.w3.org/2000/svg"><path d="M24.047 8.866a4.082 4.082 0 00-2-3.488L14.37.938a3.964 3.964 0 00-4 .01L2.725 5.444a4.063 4.063 0 00-1.99 3.5l.022 8.945c.022 1.455.79 2.789 2.022 3.5l7.655 4.44a3.928 3.928 0 004.011-.033l7.645-4.484c1.222-.71 1.979-2.056 1.979-3.5l-.022-8.945zm-2.065 8.957c0 .678-.357 1.323-.94 1.662l-7.645 4.494a1.836 1.836 0 01-.952.263h-.064c-.303 0-.606-.088-.876-.252l-7.688-4.45a1.951 1.951 0 01-.951-1.663l-.033-8.934c0-.678.357-1.323.941-1.662l7.633-4.495c.303-.175.628-.262.952-.262.324 0 .66.087.973.273l7.666 4.44c.584.339.951.973.951 1.651l.033 8.935z" fill="#637381"/><path d="M17.494 9.083l-3.926-2.169a2.444 2.444 0 00-2.36.01L7.29 9.11a2.286 2.286 0 00-1.17 1.982l.009 4.376a2.29 2.29 0 001.2 1.982l3.916 2.169a2.396 2.396 0 002.37-.01l3.898-2.187a2.274 2.274 0 001.17-1.982l-.01-4.376a2.245 2.245 0 00-1.18-1.982zm-.522 6.348c0 .216-.126.43-.319.543l-3.907 2.197a.65.65 0 01-.32.084h-.029a.597.597 0 01-.28-.075L8.18 16.002a.629.629 0 01-.319-.533l-.02-4.376c0-.215.127-.43.32-.542l3.898-2.197a.68.68 0 01.319-.084c.116 0 .223.028.338.093l3.918 2.17c.193.112.319.317.319.532l.02 4.366z" fill="#637381"/></svg>