<svg width="21" height="24" fill="none" xmlns="http://www.w3.org/2000/svg"><path d="M20.763 8.013a3.59 3.59 0 00-1.767-3.07l-6.781-3.909a3.51 3.51 0 00-3.534.01L1.93 5A3.574 3.574 0 00.17 8.08l.02 7.874c.018 1.28.696 2.455 1.785 3.08l6.762 3.908a3.478 3.478 0 003.543-.029l6.754-3.946c1.079-.626 1.747-1.81 1.747-3.08l-.019-7.874zm-1.824 7.883c0 .597-.315 1.165-.83 1.463l-6.754 3.957a1.625 1.625 0 01-.84.23h-.057c-.268 0-.535-.076-.774-.22l-6.79-3.918a1.716 1.716 0 01-.841-1.464L2.024 8.08c0-.597.315-1.165.831-1.463l6.743-3.956c.267-.154.554-.231.84-.231.287 0 .583.077.86.24L18.07 6.58c.516.298.84.856.84 1.453l.029 7.864z" fill="#979797"/><path d="M14.975 8.204l-3.469-1.91a2.164 2.164 0 00-2.084.009l-3.46 1.926a2.01 2.01 0 00-1.034 1.744l.008 3.851c.009.725.41 1.391 1.06 1.745l3.46 1.91a2.123 2.123 0 002.093-.009l3.443-1.925a2 2 0 001.034-1.745l-.009-3.852a1.975 1.975 0 00-1.042-1.744zm-.461 5.588c0 .189-.111.378-.282.477l-3.452 1.934a.578.578 0 01-.282.074h-.025a.53.53 0 01-.248-.066l-3.478-1.917a.553.553 0 01-.282-.47l-.017-3.85c0-.19.111-.38.282-.478l3.444-1.934a.587.587 0 01.58.008l3.46 1.91c.171.098.283.28.283.468l.017 3.844z" fill="#979797"/></svg>