<svg width="20" height="23" fill="none" xmlns="http://www.w3.org/2000/svg"><path d="M3.123.779a2.658 2.658 0 014.18.545 2.656 2.656 0 014 3.273 2.659 2.659 0 01.949 3.896l6.204 6.204c.945.945.765 2.51-.242 3.517-.963.963-2.437 1.17-3.39.36l-.127-.118-6.205-6.204a2.659 2.659 0 01-3.771-.73c.396 1.87.17 3.398-.738 4.53l-.143.167c-1.195 1.335-.592 3.916 1.269 3.916 2.14 0 2.793-2.572.979-3.505a1 1 0 11.914-1.779c3.695 1.9 2.33 7.284-1.893 7.284-3.789 0-4.932-4.604-2.876-7.113l.117-.137c.61-.68.741-1.801.299-3.438a2.658 2.658 0 01-1.325-4.146 2.658 2.658 0 01-.545-4.178L3.122.78zm7.74 9.154l-.93.93 6.178 6.179c.083.083.4.046.69-.242.258-.26.314-.543.262-.657l-.021-.032-6.179-6.178zm-.315-3.442a.658.658 0 00-.93 0L6.49 9.617a.658.658 0 10.93.93l3.127-3.125a.658.658 0 000-.93zM9.375 2.974a.658.658 0 00-.93 0l-5.47 5.471a.658.658 0 10.93.93l5.47-5.47a.658.658 0 000-.93zm-3.907-.781a.658.658 0 00-.93 0L2.192 4.537a.658.658 0 00.93.93l2.345-2.344a.658.658 0 000-.93z" fill="#2C3437"/></svg>