<svg width="22" height="22" viewBox="0 0 22 22" fill="none" xmlns="http://www.w3.org/2000/svg">
<path d="M11 0C10.4477 0 10 0.447715 10 1C10 1.55228 10.4477 2 11 2C15.3901 2 19.0461 5.14325 19.8401 9.302L18.1139 8.43892C17.6199 8.19193 17.0192 8.39216 16.7722 8.88614C16.5252 9.38012 16.7255 9.98079 17.2195 10.2278L20.5528 11.8944C20.8628 12.0494 21.2309 12.0329 21.5257 11.8506C21.8206 11.6684 22 11.3466 22 11C22 4.92486 17.0751 0 11 0Z" fill="#979797"/>
<path fill-rule="evenodd" clip-rule="evenodd" d="M5.85681 1.42969C3.41098 1.42969 1.42824 3.41243 1.42824 5.85826C1.42824 8.30409 3.41098 10.2868 5.85681 10.2868C8.30264 10.2868 10.2854 8.30409 10.2854 5.85826C10.2854 3.41243 8.30264 1.42969 5.85681 1.42969ZM3.42824 5.85826C3.42824 4.51699 4.51555 3.42969 5.85681 3.42969C7.19807 3.42969 8.28538 4.51699 8.28538 5.85826C8.28538 7.19952 7.19807 8.28683 5.85681 8.28683C4.51555 8.28683 3.42824 7.19952 3.42824 5.85826Z" fill="#979797"/>
<path fill-rule="evenodd" clip-rule="evenodd" d="M16.1425 11.7148C13.6966 11.7148 11.7139 13.6976 11.7139 16.1434C11.7139 18.5892 13.6966 20.572 16.1425 20.572C18.5883 20.572 20.571 18.5892 20.571 16.1434C20.571 13.6976 18.5883 11.7148 16.1425 11.7148ZM13.7139 16.1434C13.7139 14.8022 14.8012 13.7148 16.1425 13.7148C17.4837 13.7148 18.571 14.8022 18.571 16.1434C18.571 17.4847 17.4837 18.572 16.1425 18.572C14.8012 18.572 13.7139 17.4847 13.7139 16.1434Z" fill="#979797"/>
<path d="M0.474268 10.1494C0.769085 9.96714 1.13722 9.95058 1.44721 10.1056L4.78052 11.7722C5.2745 12.0192 5.47473 12.6199 5.22774 13.1139C4.98075 13.6078 4.38008 13.8081 3.8861 13.5611L2.15994 12.698C2.95397 16.8567 6.60992 20 11 20C11.5523 20 12 20.4477 12 21C12 21.5523 11.5523 22 11 22C4.92488 22 0 17.0751 0 11C0 10.6534 0.179452 10.3316 0.474268 10.1494Z" fill="#979797"/>
</svg>
