<svg width="22" height="22" fill="none" xmlns="http://www.w3.org/2000/svg"><path d="M11 0a1 1 0 100 2c4.39 0 8.046 3.143 8.84 7.302l-1.726-.863a1 1 0 10-.895 1.789l3.334 1.666A1 1 0 0022 11c0-6.075-4.925-11-11-11z" fill="#979797"/><path fill-rule="evenodd" clip-rule="evenodd" d="M5.857 1.43a4.429 4.429 0 100 8.857 4.429 4.429 0 000-8.857zM3.428 5.858a2.429 2.429 0 114.857 0 2.429 2.429 0 01-4.857 0zM16.142 11.715a4.429 4.429 0 100 8.857 4.429 4.429 0 000-8.857zm-2.428 4.428a2.429 2.429 0 114.857 0 2.429 2.429 0 01-4.857 0z" fill="#979797"/><path d="M.474 10.15a1 1 0 01.973-.044l3.334 1.666a1 1 0 01-.895 1.79l-1.726-.864C2.954 16.857 6.61 20 11 20a1 1 0 110 2C4.925 22 0 17.075 0 11a1 1 0 01.474-.85z" fill="#979797"/></svg>