<svg width="24" height="20" fill="none" xmlns="http://www.w3.org/2000/svg"><path fill-rule="evenodd" clip-rule="evenodd" d="M23.928 4.87c0-2.885-1.508-4.571-4.24-4.571H4.844C2.11.299.423 1.985.423 4.869v10.446c0 2.885 1.688 4.572 4.42 4.572h14.845c2.732 0 4.24-1.687 4.24-4.572V4.87zm-1.766 10.445H2.37c0 1.443 1.107 2.612 2.474 2.612h14.844c1.365 0 2.474-1.169 2.474-2.612zM2.37 11.562v1.795h19.792v-1.795H2.37zm19.792-1.959V4.87c0-1.441-1.109-2.611-2.474-2.611H4.844c-1.367 0-2.474 1.17-2.474 2.611v4.734h19.792z" fill="#637381"/></svg>