<svg width="50" height="50" viewBox="0 0 50 50" fill="none" xmlns="http://www.w3.org/2000/svg">
<circle cx="25" cy="25" r="25" fill="url(#paint0_linear)"/>
<path d="M25 14C24.4477 14 24 14.4477 24 15C24 15.5523 24.4477 16 25 16C29.3901 16 33.0461 19.1433 33.8401 23.302L32.1139 22.4389C31.6199 22.1919 31.0192 22.3922 30.7722 22.8861C30.5252 23.3801 30.7255 23.9808 31.2195 24.2278L34.5528 25.8944C34.8628 26.0494 35.2309 26.0329 35.5257 25.8506C35.8206 25.6684 36 25.3466 36 25C36 18.9249 31.0751 14 25 14Z" fill="#2C3437" fill-opacity="0.8"/>
<path fill-rule="evenodd" clip-rule="evenodd" d="M19.8568 15.4297C17.411 15.4297 15.4282 17.4124 15.4282 19.8583C15.4282 22.3041 17.411 24.2868 19.8568 24.2868C22.3026 24.2868 24.2854 22.3041 24.2854 19.8583C24.2854 17.4124 22.3026 15.4297 19.8568 15.4297ZM17.4282 19.8583C17.4282 18.517 18.5155 17.4297 19.8568 17.4297C21.1981 17.4297 22.2854 18.517 22.2854 19.8583C22.2854 21.1995 21.1981 22.2868 19.8568 22.2868C18.5155 22.2868 17.4282 21.1995 17.4282 19.8583Z" fill="#2C3437" fill-opacity="0.8"/>
<path fill-rule="evenodd" clip-rule="evenodd" d="M30.1425 25.7148C27.6966 25.7148 25.7139 27.6976 25.7139 30.1434C25.7139 32.5892 27.6966 34.572 30.1425 34.572C32.5883 34.572 34.571 32.5892 34.571 30.1434C34.571 27.6976 32.5883 25.7148 30.1425 25.7148ZM27.7139 30.1434C27.7139 28.8022 28.8012 27.7148 30.1425 27.7148C31.4837 27.7148 32.571 28.8022 32.571 30.1434C32.571 31.4847 31.4837 32.572 30.1425 32.572C28.8012 32.572 27.7139 31.4847 27.7139 30.1434Z" fill="#2C3437" fill-opacity="0.8"/>
<path d="M14.4743 24.1494C14.7691 23.9671 15.1372 23.9506 15.4472 24.1056L18.7805 25.7722C19.2745 26.0192 19.4747 26.6199 19.2277 27.1139C18.9807 27.6078 18.3801 27.8081 17.8861 27.5611L16.1599 26.698C16.954 30.8567 20.6099 34 25 34C25.5523 34 26 34.4477 26 35C26 35.5523 25.5523 36 25 36C18.9249 36 14 31.0751 14 25C14 24.6534 14.1795 24.3316 14.4743 24.1494Z" fill="#2C3437" fill-opacity="0.8"/>
<defs>
<linearGradient id="paint0_linear" x1="50" y1="-1.09139e-05" x2="-1.24642" y2="1.3119" gradientUnits="userSpaceOnUse">
<stop stop-color="#AAF5D4"/>
<stop offset="1" stop-color="#7CE0D6"/>
</linearGradient>
</defs>
</svg>
