<svg width="50" height="50" fill="none" xmlns="http://www.w3.org/2000/svg"><circle cx="25" cy="25" r="25" fill="url(#paint0_linear)"/><path d="M25 14a1 1 0 100 2c4.39 0 8.046 3.143 8.84 7.302l-1.726-.863a1 1 0 00-.894 1.789l3.333 1.666A1 1 0 0036 25c0-6.075-4.925-11-11-11z" fill="#2C3437" fill-opacity=".8"/><path fill-rule="evenodd" clip-rule="evenodd" d="M19.857 15.43a4.429 4.429 0 100 8.857 4.429 4.429 0 000-8.857zm-2.429 4.428a2.429 2.429 0 114.857 0 2.429 2.429 0 01-4.857 0zM30.142 25.715a4.429 4.429 0 100 8.857 4.429 4.429 0 000-8.857zm-2.428 4.428a2.429 2.429 0 114.857 0 2.429 2.429 0 01-4.857 0z" fill="#2C3437" fill-opacity=".8"/><path d="M14.474 24.15a1 1 0 01.973-.044l3.334 1.666a1 1 0 01-.895 1.79l-1.726-.864C16.954 30.857 20.61 34 25 34a1 1 0 110 2c-6.075 0-11-4.925-11-11a1 1 0 01.474-.85z" fill="#2C3437" fill-opacity=".8"/><defs><linearGradient id="paint0_linear" x1="50" y1="0" x2="-1.246" y2="1.312" gradientUnits="userSpaceOnUse"><stop stop-color="#AAF5D4"/><stop offset="1" stop-color="#7CE0D6"/></linearGradient></defs></svg>