<svg width="21" height="19" fill="none" xmlns="http://www.w3.org/2000/svg"><path fill-rule="evenodd" clip-rule="evenodd" d="M0 4.531c0-.416.338-.754.754-.754h18.762c.417 0 .754.338.754.754v13.702a.754.754 0 01-.754.754H.754A.754.754 0 010 18.233V4.531zm1.508.754V17.48h17.254V5.285H1.508z" fill="#979797"/><path fill-rule="evenodd" clip-rule="evenodd" d="M11.444 11.227A3.245 3.245 0 0114.69 7.98h4.516c.416 0 .754.338.754.754v4.983a.754.754 0 01-.754.754h-4.516a3.245 3.245 0 01-3.245-3.245zm3.245-1.738a1.737 1.737 0 000 3.475h3.762V9.489h-3.762zM14.52 1.754a10.178 10.178 0 00.38-.091c.136-.034.272-.067.409-.094.284-.056.523-.076.708-.05.166.025.249.078.307.156.073.096.184.333.184.869a.754.754 0 001.508 0c0-.72-.146-1.323-.487-1.776-.355-.471-.84-.675-1.296-.741-.437-.063-.873-.005-1.215.062a9.892 9.892 0 00-.482.11l-.074.019a7.791 7.791 0 01-.3.071L.669 3.741a.754.754 0 10.374 1.461L14.52 1.754z" fill="#979797"/></svg>