<svg width="22" height="22" fill="none" xmlns="http://www.w3.org/2000/svg"><path fill-rule="evenodd" clip-rule="evenodd" d="M11.862.492L11 1l-.862-.508a1 1 0 011.724 0zM11 3.077l.108.21c.243.482.478.979.65 1.412.085.217.15.404.192.556A1.91 1.91 0 0112 5.5a1 1 0 01-2 0 1.91 1.91 0 01.05-.245 5.64 5.64 0 01.192-.556A17.616 17.616 0 0111 3.077zM11 1l-.862-.508v.002l-.006.01-.018.03a26.347 26.347 0 00-.3.526c-.191.343-.448.815-.706 1.324a19.583 19.583 0 00-.725 1.579C8.197 4.43 8 5.012 8 5.5a3 3 0 006 0c0-.488-.197-1.069-.383-1.537a19.61 19.61 0 00-.725-1.58A37.914 37.914 0 0011.887.536l-.019-.03-.006-.011V.492L11 1zM1 10a1 1 0 011 1 1.5 1.5 0 003 0 1 1 0 112 0 1.5 1.5 0 003 0 1 1 0 112 0 1.5 1.5 0 003 0 1 1 0 112 0 1.5 1.5 0 003 0 1 1 0 112 0c0 6.075-4.925 11-11 11S0 17.075 0 11a1 1 0 011-1zm1.664 4.4a9.003 9.003 0 0016.672 0A3.509 3.509 0 0116 13.45a3.49 3.49 0 01-2.5 1.05 3.49 3.49 0 01-2.5-1.05 3.49 3.49 0 01-2.5 1.05A3.49 3.49 0 016 13.45a3.49 3.49 0 01-3.336.95z" fill="#2C3437"/></svg>