<svg width="50" height="51" fill="none" xmlns="http://www.w3.org/2000/svg"><circle cx="25" cy="25.238" r="25" fill="url(#paint0_linear)"/><path fill-rule="evenodd" clip-rule="evenodd" d="M26.005 15.492l-.862.508-.862-.508a1 1 0 011.724 0zm-.862 2.585l.108.21c.243.482.478.979.65 1.412.085.216.15.404.192.556.02.076.034.136.042.181.007.041.008.061.008.064a1 1 0 01-2 0 1.905 1.905 0 01.05-.245c.042-.152.106-.34.192-.556a17.652 17.652 0 01.758-1.622zm0-2.077l-.862-.508v.002l-.007.01-.018.03a24.354 24.354 0 00-.299.526c-.191.343-.448.815-.706 1.324a19.566 19.566 0 00-.725 1.579c-.186.468-.383 1.049-.383 1.537a3 3 0 006 0c0-.488-.198-1.069-.383-1.537a19.568 19.568 0 00-.725-1.58 37.801 37.801 0 00-.94-1.734l-.066-.114-.018-.03-.006-.011v-.002l-.862.508zm-10 9a1 1 0 011 1 1.5 1.5 0 003 0 1 1 0 112 0 1.5 1.5 0 003 0 1 1 0 112 0 1.5 1.5 0 003 0 1 1 0 112 0 1.5 1.5 0 003 0 1 1 0 112 0c0 6.075-4.925 11-11 11s-11-4.925-11-11a1 1 0 011-1zm1.664 4.4a9.003 9.003 0 0016.672 0 3.51 3.51 0 01-3.336-.95 3.49 3.49 0 01-2.5 1.05 3.49 3.49 0 01-2.5-1.05 3.49 3.49 0 01-2.5 1.05 3.49 3.49 0 01-2.5-1.05 3.49 3.49 0 01-3.336.95z" fill="#2C3437" fill-opacity=".8"/><defs><linearGradient id="paint0_linear" x1="50" y1=".238" x2="-1.246" y2="1.55" gradientUnits="userSpaceOnUse"><stop stop-color="#AAF5D4"/><stop offset="1" stop-color="#7CE0D6"/></linearGradient></defs></svg>