<svg width="25" height="26" fill="none" xmlns="http://www.w3.org/2000/svg"><path fill-rule="evenodd" clip-rule="evenodd" d="M18.335 11.12c.11-.614.582-.995 1.052-.85 1.416.434 2.576 1.154 3.403 2.041.81.87 1.392 2.01 1.392 3.274 0 2.186-1.448 3.865-3.146 4.927-1.777 1.11-4.175 1.788-6.79 1.788-2.416 0-4.643-.58-6.366-1.538-1.667-.927-3.079-2.338-3.467-4.189-.128-.609.146-1.238.613-1.405.466-.167.947.191 1.075.8.17.807.935 1.839 2.465 2.69 1.474.82 3.463 1.355 5.68 1.355 2.404 0 4.536-.629 6.035-1.565 1.576-.985 2.15-2.092 2.15-2.863 0-.316-.16-.872-.752-1.506-.575-.617-1.475-1.209-2.693-1.583-.47-.145-.762-.76-.651-1.375z" fill="#637381"/><path fill-rule="evenodd" clip-rule="evenodd" d="M4.075 4.057C2.5 4.94 1.967 5.947 1.967 6.68c0 .77.571 1.874 2.141 2.857 1.492.935 3.615 1.562 6.009 1.562 2.393 0 4.515-.627 6.008-1.562 1.57-.983 2.14-2.087 2.14-2.857 0-.733-.532-1.74-2.107-2.623-1.495-.838-3.627-1.368-6.042-1.368-2.414 0-4.546.53-6.041 1.368zm-.69-2.102C5.153.964 7.533.402 10.117.402c2.583 0 4.963.562 6.731 1.553 1.688.946 3.168 2.506 3.168 4.725 0 2.183-1.442 3.86-3.135 4.92-1.77 1.108-4.16 1.786-6.764 1.786-2.605 0-4.995-.678-6.765-1.786C1.658 10.54.217 8.863.217 6.68c0-2.219 1.48-3.78 3.168-4.725zM5.257 14.665c.483 0 .875.512.875 1.144 0 .753.566 1.847 2.139 2.824 1.493.928 3.616 1.55 6.01 1.55 2.395 0 4.518-.622 6.011-1.55 1.573-.977 2.139-2.07 2.139-2.824 0-.632.392-1.144.875-1.144s.875.512.875 1.144v3.565c0 2.21-1.459 3.829-3.152 4.83-1.77 1.048-4.154 1.662-6.748 1.662-2.593 0-4.978-.614-6.747-1.661-1.693-1.002-3.152-2.622-3.152-4.83v-3.566c0-.632.391-1.144.875-1.144zm.898 4.983c.118.73.711 1.65 2.101 2.473 1.493.884 3.62 1.458 6.025 1.458 2.405 0 4.533-.574 6.026-1.458 1.39-.823 1.983-1.743 2.101-2.473-.416.4-.88.75-1.364 1.051-1.77 1.1-4.159 1.772-6.763 1.772-2.603 0-4.992-.672-6.762-1.772a8.293 8.293 0 01-1.364-1.051z" fill="#637381"/><path fill-rule="evenodd" clip-rule="evenodd" d="M4.106 9.719c1.493.927 3.616 1.55 6.01 1.55 2.395 0 4.518-.623 6.011-1.55 1.573-.977 2.139-2.072 2.139-2.825h1.75v3.566c0 2.208-1.46 3.828-3.152 4.83-1.77 1.047-4.154 1.662-6.748 1.662-2.593 0-4.978-.615-6.747-1.662C1.676 14.288.216 12.669.216 10.46V6.894h1.751c0 .753.566 1.848 2.139 2.825zM1.99 10.733c.118.73.711 1.65 2.1 2.473 1.494.884 3.621 1.458 6.026 1.458s4.533-.574 6.026-1.458c1.39-.822 1.983-1.743 2.101-2.473-.416.4-.88.75-1.364 1.051-1.77 1.1-4.159 1.772-6.763 1.772-2.603 0-4.992-.672-6.762-1.772a8.288 8.288 0 01-1.364-1.05z" fill="#637381"/></svg>