<svg width="50" height="50" fill="none" xmlns="http://www.w3.org/2000/svg"><circle cx="25" cy="25" r="25" fill="url(#paint0_linear)"/><path fill-rule="evenodd" clip-rule="evenodd" d="M25 11a1 1 0 011 1v5.586l.293-.293a1 1 0 011.414 1.414l-2 2a1 1 0 01-1.414 0l-2-2a1 1 0 011.414-1.414l.293.293V12a1 1 0 011-1zm-11 6.819a1 1 0 011-1h2a3 3 0 013 3v4.267l.293-.293a1 1 0 011.414 1.414l-2 2a1 1 0 01-1.414 0l-2-2a1 1 0 011.414-1.414l.293.293v-4.267a1 1 0 00-1-1h-2a1 1 0 01-1-1zm19 1a1 1 0 00-1 1v4.267l.293-.293a1 1 0 011.414 1.414l-2 2a1 1 0 01-1.414 0l-2-2a1 1 0 011.414-1.414l.293.293v-4.267a3 3 0 013-3h2a1 1 0 110 2h-2zM15 27a1 1 0 011 1v2a1 1 0 001 1h16a1 1 0 001-1v-2a1 1 0 112 0v2a3 3 0 01-3 3H17a3 3 0 01-3-3v-2a1 1 0 011-1z" fill="#2C3437" fill-opacity=".8"/><defs><linearGradient id="paint0_linear" x1="50" y1="0" x2="-1.246" y2="1.312" gradientUnits="userSpaceOnUse"><stop stop-color="#AAF5D4"/><stop offset="1" stop-color="#7CE0D6"/></linearGradient></defs></svg>