<svg width="33" height="31" fill="none" xmlns="http://www.w3.org/2000/svg"><g clip-path="url(#clip0)" fill="#637381"><path d="M28.105 10.06L17.074 4.546a.97.97 0 00-.867 0l-11.03 5.516a.97.97 0 000 1.734l11.03 5.515a.97.97 0 00.867 0l11.03-5.515a.97.97 0 000-1.734zm-11.465 5.3l-8.862-4.432 8.862-4.432 8.863 4.432-8.863 4.431zM28.538 21.525a.97.97 0 00-1.3-.434L16.64 26.39 6.043 21.09a.97.97 0 00-.867 1.735l11.03 5.515a.97.97 0 00.868 0l11.03-5.515a.97.97 0 00.434-1.301z"/><path d="M28.538 16.01a.97.97 0 00-1.3-.434L16.64 20.875 6.043 15.576a.97.97 0 10-.867 1.734l11.03 5.516a.97.97 0 00.868 0l11.03-5.516a.97.97 0 00.434-1.3z"/></g><defs><clipPath id="clip0"><rect x=".832" y=".443" width="31.229" height="30.361" rx="15.18" fill="#fff"/></clipPath></defs></svg>