<svg width="22" height="22" viewBox="0 0 22 22" fill="none" xmlns="http://www.w3.org/2000/svg">
<path fill-rule="evenodd" clip-rule="evenodd" d="M13.1173 0.0761497C13.491 -0.0786313 13.9211 0.00692445 14.2071 0.292922L21.7071 7.79292C22.0976 8.18345 22.0976 8.81661 21.7071 9.20714L14.2071 16.7071C13.9211 16.9931 13.491 17.0787 13.1173 16.9239C12.7436 16.7691 12.5 16.4045 12.5 16V12H8C7.44772 12 7 11.5523 7 11V8.03705L2.3477 13.0217L7 18.3386V15C7 14.4477 7.44772 14 8 14H10.5C11.0523 14 11.5 14.4477 11.5 15C11.5 15.5523 11.0523 16 10.5 16H9V21C9 21.4166 8.74172 21.7896 8.35173 21.9361C7.96174 22.0827 7.52176 21.9721 7.24742 21.6585L0.247424 13.6585C-0.0905388 13.2723 -0.0812392 12.6929 0.268945 12.3177L7.26895 4.81771C7.5492 4.51743 7.98458 4.41907 8.36671 4.56969C8.74884 4.72031 9 5.08928 9 5.50003V10H13.5C14.0523 10 14.5 10.4477 14.5 11V13.5858L19.5858 8.50003L14.5 3.41424V7.00003C14.5 7.55231 14.0523 8.00003 13.5 8.00003H11C10.4477 8.00003 10 7.55231 10 7.00003C10 6.44774 10.4477 6.00003 11 6.00003H12.5V1.00003C12.5 0.595567 12.7436 0.230931 13.1173 0.0761497Z" fill="#2C3437"/>
</svg>
