<svg width="20" height="16" fill="none" xmlns="http://www.w3.org/2000/svg"><path d="M6.238 6.001H2.45V2.214a.727.727 0 00-1.455 0V6.73c0 .402.326.727.728.727h4.515a.727.727 0 100-1.455zM18.277 9.011h-4.515a.727.727 0 100 1.455h3.788v3.788a.727.727 0 101.455 0V9.739a.727.727 0 00-.728-.728z" fill="#979797" stroke="#979797" stroke-width=".2"/><path d="M17.075 5.734a7.451 7.451 0 00-3.84-4.267 7.45 7.45 0 00-5.733-.302 7.546 7.546 0 00-2.794 1.76L1.225 6.2a.727.727 0 10.996 1.06l3.492-3.28a6.082 6.082 0 012.275-1.441 6.052 6.052 0 017.715 3.681.728.728 0 001.372-.485zM18.807 9.24a.727.727 0 00-1.028-.031l-3.492 3.28a6.005 6.005 0 01-4.29 1.787h-.001a6.006 6.006 0 01-4.273-1.769 6.082 6.082 0 01-1.426-2.258.728.728 0 00-1.371.485 7.545 7.545 0 001.768 2.803 7.45 7.45 0 005.302 2.195h.002c1.999 0 3.879-.778 5.294-2.19l3.483-3.273a.727.727 0 00.032-1.028z" fill="#979797" stroke="#979797" stroke-width=".2"/></svg>