<svg width="33" height="33" fill="none" xmlns="http://www.w3.org/2000/svg"><circle cx="16.5" cy="16.5" r="16.5" fill="#BFBFBF"/><path d="M25.245 12.293a7.134 7.134 0 01-1.897.495c.66-.413 1.237-1.073 1.485-1.815-.66.412-1.32.66-2.145.825a3.246 3.246 0 00-2.393-1.073 3.31 3.31 0 00-3.3 3.3c0 .248 0 .495.083.743a9.725 9.725 0 01-6.848-3.465 3.755 3.755 0 00-.412 1.65c0 1.155.577 2.145 1.485 2.722a2.85 2.85 0 01-1.485-.412c0 1.567 1.155 2.97 2.64 3.217-.248.083-.578.083-.908.083-.247 0-.412 0-.66-.083a3.293 3.293 0 003.135 2.31c-1.155.908-2.557 1.403-4.125 1.403-.247 0-.495 0-.825-.083 1.485.908 3.218 1.485 5.115 1.485 6.105 0 9.405-5.032 9.405-9.405v-.412c.66-.248 1.238-.825 1.65-1.485z" fill="#fff"/></svg>