<svg width="40" height="40" fill="none" xmlns="http://www.w3.org/2000/svg"><circle cx="20" cy="20" r="20" fill="url(#paint0_linear)"/><circle cx="20" cy="20" r="15.5" stroke="#2C3437" stroke-opacity=".8" stroke-dasharray="3 2"/><path d="M18.836 24.865v-.589c0-.886.168-1.68.503-2.379.352-.699.767-1.27 1.243-1.714.494-.443.979-.87 1.455-1.279.494-.409.908-.886 1.243-1.432.353-.546.53-1.151.53-1.816 0-.853-.327-1.56-.98-2.123-.652-.58-1.551-.87-2.698-.87-1.27 0-2.275.324-3.016.972-.723.648-1.084 1.483-1.084 2.507h-1.746c0-1.484.529-2.712 1.587-3.684 1.058-.972 2.478-1.458 4.26-1.458 1.745 0 3.112.452 4.1 1.356.987.887 1.481 2.004 1.481 3.35 0 .82-.176 1.553-.529 2.2a5.434 5.434 0 01-1.243 1.587c-.476.409-.961.818-1.455 1.228-.476.409-.89.912-1.244 1.509-.335.597-.502 1.279-.502 2.046v.589h-1.905zm2.064 4.22a1.567 1.567 0 01-1.165.486c-.458 0-.855-.162-1.19-.486-.318-.324-.476-.699-.476-1.125 0-.427.159-.802.476-1.126a1.655 1.655 0 011.19-.486c.459 0 .847.162 1.165.486.335.324.502.7.502 1.126 0 .426-.167.801-.503 1.125z" fill="#2C3437" fill-opacity=".8"/><defs><linearGradient id="paint0_linear" x1="40" y1="0" x2="-.997" y2="1.05" gradientUnits="userSpaceOnUse"><stop stop-color="#AAF5D4"/><stop offset="1" stop-color="#7CE0D6"/></linearGradient></defs></svg>