<svg width="33" height="33" fill="none" xmlns="http://www.w3.org/2000/svg"><path fill-rule="evenodd" clip-rule="evenodd" d="M5.578 12.034c0-.442.36-.801.804-.801h19.984c.444 0 .803.359.803.801V26.6c0 .442-.36.801-.803.801H6.382a.802.802 0 01-.804-.801V12.034zm1.607.802v12.961h18.378V12.836H7.185z" fill="#637381"/><path fill-rule="evenodd" clip-rule="evenodd" d="M17.768 19.151a3.453 3.453 0 013.457-3.45h4.81c.443 0 .803.36.803.802V21.8c0 .443-.36.802-.803.802h-4.81a3.453 3.453 0 01-3.457-3.45zm3.457-1.846a1.848 1.848 0 100 3.693h4.006v-3.693h-4.006z" fill="#637381"/><path fill-rule="evenodd" clip-rule="evenodd" d="M21.53 20.214a1.05 1.05 0 10.002-2.099 1.05 1.05 0 00-.002 2.099zm-.485-11.132c.106-.023.226-.052.337-.08l.068-.017c.144-.036.288-.07.435-.1.302-.059.557-.08.754-.052.177.025.265.083.327.165.078.102.196.354.196.924a.802.802 0 001.607 0c0-.765-.156-1.406-.52-1.888-.377-.5-.895-.718-1.38-.788-.465-.066-.93-.005-1.295.067-.187.037-.363.08-.512.116l-.08.02c-.117.03-.207.052-.286.069a.805.805 0 00-.033.007L6.29 11.195a.801.801 0 10.398 1.552l14.356-3.665z" fill="#637381"/></svg>