<svg width="50" height="50" fill="none" xmlns="http://www.w3.org/2000/svg"><circle cx="25" cy="25" r="25" fill="url(#paint0_linear)"/><path fill-rule="evenodd" clip-rule="evenodd" d="M28.392 14.134a1 1 0 011.366.366L31.78 18H34a2 2 0 012 2v14a2 2 0 01-2 2H16a2 2 0 01-2-2V20a2 2 0 012-2h5.696l6.696-3.866zm1.073 3.859l-.939-1.627-2.81 1.623 3.75.004zM34 30.5h-3.375C28.669 30.5 27 28.98 27 27c0-1.978 1.67-3.5 3.625-3.5H34V20H16v14h18v-3.5zm0-5h-3.375c-.944 0-1.625.717-1.625 1.5s.681 1.5 1.625 1.5H34v-3z" fill="#2C3437" fill-opacity=".8"/><defs><linearGradient id="paint0_linear" x1="50" y1="0" x2="-1.246" y2="1.312" gradientUnits="userSpaceOnUse"><stop stop-color="#AAF5D4"/><stop offset="1" stop-color="#7CE0D6"/></linearGradient></defs></svg>