<svg width="25" height="28" fill="none" xmlns="http://www.w3.org/2000/svg"><path fill-rule="evenodd" clip-rule="evenodd" d="M22.872 5.546L13.979.454a3.41 3.41 0 00-3.418.01l-8.86 5.154A3.43 3.43 0 000 8.579l.035 10.252a3.433 3.433 0 001.722 2.957l8.89 5.09a3.412 3.412 0 003.42-.01l8.863-5.154a3.438 3.438 0 001.692-2.965l-.034-10.252a3.436 3.436 0 00-1.716-2.951zm-9.387-.63l6.377 3.416c.372.2.68.489.897.836.216.347.331.741.334 1.143l.025 6.877c0 .401-.111.796-.324 1.145a2.39 2.39 0 01-.89.844l-6.354 3.458c-.373.203-.795.31-1.226.311a2.579 2.579 0 01-1.227-.305L4.72 19.227a2.39 2.39 0 01-.9-.838 2.191 2.191 0 01-.334-1.145l-.025-6.877c0-.402.112-.797.326-1.145.214-.349.522-.639.893-.841l6.353-3.457a2.58 2.58 0 011.224-.312c.43-.002.854.103 1.227.304z" fill="url(#paint0_linear)"/><path fill-rule="evenodd" clip-rule="evenodd" d="M13.19 7.479l4.502 2.389c.262.14.48.342.633.585.152.243.234.518.236.8l.017 4.808c0 .281-.078.558-.228.802a1.68 1.68 0 01-.628.59l-4.486 2.418a1.833 1.833 0 01-.865.218c-.304 0-.603-.073-.867-.213l-4.5-2.389a1.68 1.68 0 01-.635-.585 1.522 1.522 0 01-.236-.802l-.018-4.809c0-.281.08-.557.23-.801.152-.244.369-.447.631-.588l4.484-2.418a1.834 1.834 0 011.73-.005zm-1.833 6.192l-2.368-2.817h2.044l1.346 1.601 1.346-1.601h2.044l-2.368 2.817 2.36 2.807h-2.045l-1.337-1.59-1.337 1.59H8.998l2.359-2.807z" fill="#FF9D72"/><defs><linearGradient id="paint0_linear" x1="7.039" y1="28.683" x2="16.032" y2="-1.317" gradientUnits="userSpaceOnUse"><stop stop-color="#FF9372"/><stop offset="1" stop-color="#FFD770"/></linearGradient></defs></svg>