<svg width="262" height="231" fill="none" xmlns="http://www.w3.org/2000/svg"><path fill-rule="evenodd" clip-rule="evenodd" d="M200.06 70.7l51.567 30.291a20.195 20.195 0 017.251 7.423 20.847 20.847 0 012.699 10.137l.201 60.985c.003 3.563-.9 7.065-2.621 10.159a20.227 20.227 0 01-7.191 7.484l-51.393 30.667a19.407 19.407 0 01-9.909 2.762 19.413 19.413 0 01-9.925-2.704l-51.553-30.286a20.162 20.162 0 01-7.28-7.43 20.836 20.836 0 01-2.704-10.163L119 119.04c0-3.565.911-7.067 2.641-10.158a20.149 20.149 0 017.221-7.46l51.378-30.658A19.395 19.395 0 01190.142 68c3.48-.011 6.901.92 9.918 2.7zm-3.326 29.965l34.187 18.693a12.922 12.922 0 014.81 4.577 12.185 12.185 0 011.793 6.255l.134 37.632a12.192 12.192 0 01-1.738 6.269 12.945 12.945 0 01-4.768 4.619l-34.071 18.923a13.598 13.598 0 01-6.57 1.704 13.61 13.61 0 01-6.58-1.669l-34.179-18.687a12.93 12.93 0 01-4.826-4.583 12.174 12.174 0 01-1.792-6.27L143 130.495c0-2.199.603-4.36 1.75-6.268a12.888 12.888 0 014.788-4.602l34.056-18.919A13.581 13.581 0 01190.158 99a13.592 13.592 0 016.576 1.665z" fill="url(#paint0_linear)"/><path fill-rule="evenodd" clip-rule="evenodd" d="M81.06 2.7l51.567 30.291a20.192 20.192 0 017.251 7.423 20.85 20.85 0 012.699 10.137l.201 60.985c.003 3.563-.9 7.065-2.621 10.159a20.227 20.227 0 01-7.191 7.484l-51.393 30.667a19.41 19.41 0 01-9.91 2.762 19.412 19.412 0 01-9.924-2.704l-51.553-30.286a20.167 20.167 0 01-7.28-7.43 20.828 20.828 0 01-2.704-10.163L0 51.04c0-3.565.91-7.067 2.64-10.158a20.157 20.157 0 017.222-7.46L61.24 2.764A19.392 19.392 0 0171.142 0c3.48-.011 6.901.92 9.918 2.7zm-3.326 29.965l34.187 18.693a12.928 12.928 0 014.81 4.578 12.18 12.18 0 011.793 6.254l.134 37.632a12.192 12.192 0 01-1.738 6.269 12.945 12.945 0 01-4.768 4.619l-34.071 18.923a13.597 13.597 0 01-6.57 1.704 13.61 13.61 0 01-6.58-1.669l-34.18-18.687a12.926 12.926 0 01-4.825-4.583 12.176 12.176 0 01-1.792-6.27L24 62.495c0-2.2.603-4.36 1.75-6.268a12.89 12.89 0 014.788-4.602l34.056-18.92A13.587 13.587 0 0171.158 31a13.592 13.592 0 016.576 1.665z" fill="url(#paint1_linear)"/><path d="M210.584 132.753l-17.336-9.873a6.673 6.673 0 00-6.663.021l-17.27 9.993a6.631 6.631 0 00-3.315 5.742l.068 19.879a6.623 6.623 0 00.909 3.312 6.684 6.684 0 002.447 2.421l17.332 9.87a6.68 6.68 0 006.668-.018l17.277-9.996a6.687 6.687 0 002.418-2.44 6.646 6.646 0 00.881-3.311l-.068-19.878a6.637 6.637 0 00-.909-3.304 6.685 6.685 0 00-2.439-2.418zM91.584 64.753L74.248 54.88a6.677 6.677 0 00-6.663.021l-17.27 9.993a6.663 6.663 0 00-2.427 2.431A6.618 6.618 0 0047 70.637l.068 19.879a6.63 6.63 0 00.909 3.311 6.674 6.674 0 002.447 2.422l17.332 9.87a6.681 6.681 0 006.668-.018L91.7 96.104a6.688 6.688 0 002.418-2.44A6.644 6.644 0 0095 90.353l-.068-19.878a6.635 6.635 0 00-.909-3.304 6.68 6.68 0 00-2.44-2.418z" fill="#FF9D72"/><defs><linearGradient id="paint0_linear" x1="137.5" y1="129.5" x2="259.953" y2="113.668" gradientUnits="userSpaceOnUse"><stop stop-color="#FF9372"/><stop offset="1" stop-color="#FFD770"/></linearGradient><linearGradient id="paint1_linear" x1="130.5" y1="113" x2="2.145" y2="129.595" gradientUnits="userSpaceOnUse"><stop stop-color="#FF9372"/><stop offset="1" stop-color="#FFD770"/></linearGradient></defs></svg>