<svg width="262" height="231" viewBox="0 0 262 231" fill="none" xmlns="http://www.w3.org/2000/svg">
<path d="M210.584 132.753L193.248 122.88C192.234 122.3 191.083 121.996 189.914 122C188.744 122.004 187.595 122.315 186.585 122.901L169.315 132.894C168.306 133.48 167.469 134.318 166.887 135.325C166.306 136.333 166 137.475 166 138.636L166.068 158.515C166.074 159.679 166.388 160.821 166.977 161.827C167.566 162.832 168.409 163.667 169.424 164.248L186.756 174.118C187.77 174.699 188.922 175.003 190.092 175C191.263 174.997 192.412 174.686 193.424 174.1L210.701 164.104C211.707 163.514 212.54 162.673 213.119 161.664C213.697 160.656 214.001 159.514 214 158.353L213.932 138.475C213.924 137.314 213.61 136.175 213.023 135.171C212.436 134.168 211.595 133.334 210.584 132.753Z" fill="#FF9D72"/>
<path d="M91.5839 64.7533L74.2481 54.8796C73.2337 54.2997 72.0835 53.9963 70.9135 54C69.7435 54.0038 68.5952 54.3146 67.5846 54.9011L50.3152 64.8944C49.3062 65.4798 48.4691 66.318 47.8875 67.3255C47.3058 68.333 46.9998 69.4745 47 70.6363L47.0678 90.5147C47.0745 91.6787 47.388 92.8206 47.9769 93.8265C48.5657 94.8324 49.4093 95.6672 50.4238 96.2475L67.7557 106.118C68.7705 106.699 69.9215 107.003 71.0923 107C72.2631 106.997 73.4124 106.686 74.4239 106.1L91.701 96.1041C92.7066 95.514 93.54 94.673 94.1185 93.6644C94.6971 92.6557 95.0009 91.5142 95 90.353L94.932 70.4753C94.9237 69.314 94.6104 68.1751 94.0231 67.1714C93.4358 66.1677 92.595 65.3341 91.5839 64.7533Z" fill="#FF9D72"/>
<path fill-rule="evenodd" clip-rule="evenodd" d="M132.627 32.9911L81.0602 2.69991C78.0432 0.920193 74.622 -0.0111329 71.1419 0.000100428C67.6618 0.0113338 64.2462 0.964693 61.2403 2.76385L9.86184 33.4215C6.86096 35.2184 4.37118 37.7905 2.6409 40.8817C0.910612 43.9728 0.00020379 47.4751 0 51.0396L0.202427 112.025C0.221655 115.597 1.15377 119.101 2.90561 122.188C4.65744 125.276 7.168 127.837 10.1864 129.618L61.7389 159.904C64.7575 161.685 68.1811 162.618 71.6637 162.608C75.1463 162.598 78.5647 161.645 81.5733 159.846L119.061 137.476L119.062 137.666L147.663 120.89C148.246 120.419 148.873 119.995 149.538 119.625L154.88 116.657L156 116L156.007 116.031L183.594 100.706C185.586 99.5956 187.851 99.0072 190.158 99.0001C192.466 98.9929 194.734 99.5674 196.734 100.665L230.921 119.358C232.915 120.457 234.573 122.035 235.731 123.935C236.89 125.836 237.507 127.992 237.524 130.19L237.658 167.822C237.66 170.02 237.061 172.181 235.92 174.091C234.779 176 233.135 177.592 231.152 178.71L197.081 197.633C195.086 198.743 192.82 199.331 190.511 199.337C188.202 199.343 185.932 198.767 183.931 197.668L149.752 178.981C147.751 177.882 146.088 176.302 144.926 174.398C143.765 172.493 143.147 170.332 143.134 168.128L143.062 147.885L119.142 161.734L119.202 180.025C119.222 183.597 120.154 187.101 121.906 190.188C123.657 193.276 126.168 195.837 129.186 197.618L180.739 227.904C183.758 229.685 187.181 230.618 190.664 230.608C194.146 230.598 197.565 229.645 200.573 227.846L251.966 197.179C254.957 195.369 257.436 192.789 259.157 189.695C260.878 186.601 261.781 183.099 261.778 179.536L261.577 118.551C261.554 114.988 260.623 111.494 258.878 108.414C257.133 105.334 254.633 102.775 251.627 100.991L200.06 70.6999C197.043 68.9202 193.622 67.9889 190.142 68.0001C186.662 68.0113 183.246 68.9647 180.24 70.7638L146.506 90.8931L146.5 91L106.5 114L106.435 113.885L78.0809 129.633C76.0862 130.743 73.8198 131.331 71.5109 131.337C69.202 131.343 66.9321 130.767 64.931 129.668L30.7518 110.981C28.7513 109.882 27.0877 108.302 25.9264 106.398C24.7652 104.493 24.1469 102.332 24.1336 100.128L24 62.4952C23.9996 60.2957 24.603 58.1346 25.7501 56.2272C26.8972 54.3199 28.5479 52.733 30.5376 51.6247L64.5936 32.7059C66.5864 31.5956 68.8511 31.0072 71.1583 31.0001C73.4656 30.9929 75.7338 31.5674 77.7342 32.6653L111.921 51.3576C113.915 52.4572 115.573 54.0353 116.731 55.9355C117.89 57.8356 118.507 59.9918 118.524 62.1903L118.595 82.2471L142.635 68.1468L142.577 50.5511C142.554 46.9885 141.623 43.4939 139.878 40.4138C138.133 37.3337 135.633 34.7749 132.627 32.9911Z" fill="url(#paint0_linear)"/>
<defs>
<linearGradient id="paint0_linear" x1="228" y1="21.5" x2="1.24149" y2="112.317" gradientUnits="userSpaceOnUse">
<stop stop-color="#FFCB70"/>
<stop offset="0.291667" stop-color="#FF9372"/>
<stop offset="0.71875" stop-color="#FF9372"/>
<stop offset="1" stop-color="#FFD770"/>
</linearGradient>
</defs>
</svg>
