<svg width="218" height="249" fill="none" xmlns="http://www.w3.org/2000/svg"><path fill-rule="evenodd" clip-rule="evenodd" d="M202.501 50.372l-78.735-46.25A29.6 29.6 0 00108.623 0a29.61 29.61 0 00-15.119 4.22L15.057 51.03c-4.581 2.743-8.383 6.67-11.025 11.39A31.773 31.773 0 000 77.93l.31 93.115a31.806 31.806 0 004.126 15.518c2.675 4.714 6.508 8.625 11.117 11.344l78.713 46.241a29.627 29.627 0 0015.153 4.13 29.642 29.642 0 0015.131-4.218l78.469-46.823c4.567-2.764 8.351-6.703 10.979-11.427A31.878 31.878 0 00218 170.299l-.307-93.115a31.836 31.836 0 00-4.12-15.478c-2.665-4.703-6.482-8.61-11.072-11.334zm-83.11-5.718l56.458 31.026c3.293 1.825 6.031 4.445 7.944 7.598a20.292 20.292 0 012.96 10.382l.222 62.461a20.32 20.32 0 01-2.871 10.406c-1.884 3.169-4.598 5.812-7.873 7.666l-56.267 31.409a22.374 22.374 0 01-10.85 2.829 22.378 22.378 0 01-10.867-2.771l-56.445-31.016c-3.304-1.824-6.051-4.447-7.969-7.608a20.281 20.281 0 01-2.96-10.406l-.221-62.464c-.001-3.65.995-7.237 2.89-10.403 1.894-3.166 4.62-5.8 7.906-7.64L97.69 44.723a22.35 22.35 0 0110.841-2.831 22.355 22.355 0 0110.86 2.764z" fill="url(#paint0_linear)"/><path fill-rule="evenodd" clip-rule="evenodd" d="M116.791 67.933l39.852 21.699a15.043 15.043 0 015.608 5.314 14.098 14.098 0 012.089 7.261l.157 43.684a14.111 14.111 0 01-2.027 7.278 15.057 15.057 0 01-5.557 5.362l-39.718 21.966a15.903 15.903 0 01-7.659 1.979 15.906 15.906 0 01-7.671-1.938l-39.843-21.692c-2.332-1.276-4.272-3.11-5.625-5.321a14.088 14.088 0 01-2.09-7.278l-.156-43.686c0-2.553.703-5.062 2.04-7.276a15 15 0 015.581-5.343l39.7-21.962a15.891 15.891 0 017.653-1.98c2.69-.008 5.334.659 7.666 1.933zm-16.233 56.247L79.592 98.588H97.69l11.918 14.547 11.917-14.547h18.099l-20.967 25.592 20.887 25.494h-18.099l-11.837-14.449-11.838 14.449H79.672l20.886-25.494z" fill="#FF9D72"/><defs><linearGradient id="paint0_linear" x1="62.325" y1="260.538" x2="145.765" y2="-10.788" gradientUnits="userSpaceOnUse"><stop stop-color="#FF9372"/><stop offset="1" stop-color="#FFD770"/></linearGradient></defs></svg>