<svg width="20" height="20" fill="none" xmlns="http://www.w3.org/2000/svg"><path fill-rule="evenodd" clip-rule="evenodd" d="M15.12 8.419c.093-.483.486-.783.879-.669 1.181.342 2.15.907 2.84 1.604.675.682 1.16 1.579 1.16 2.571 0 1.717-1.207 3.036-2.624 3.87-1.483.871-3.485 1.405-5.666 1.405-2.017 0-3.876-.456-5.313-1.208-1.391-.729-2.57-1.837-2.894-3.29-.107-.479.122-.973.511-1.104.39-.132.791.15.898.628.141.634.78 1.444 2.057 2.113 1.23.644 2.89 1.064 4.74 1.064 2.007 0 3.785-.494 5.036-1.23 1.316-.773 1.795-1.642 1.795-2.248 0-.248-.134-.684-.628-1.183-.48-.485-1.23-.95-2.247-1.243-.393-.114-.636-.597-.544-1.08z" fill="#2C3437"/><path fill-rule="evenodd" clip-rule="evenodd" d="M3.22 2.87c-1.315.694-1.759 1.485-1.759 2.061 0 .605.477 1.472 1.787 2.244 1.245.734 3.016 1.227 5.014 1.227 1.997 0 3.769-.493 5.014-1.227 1.31-.772 1.787-1.64 1.787-2.244 0-.576-.445-1.367-1.76-2.06-1.247-.659-3.026-1.074-5.041-1.074-2.015 0-3.794.415-5.042 1.074zm-.576-1.65C4.119.44 6.106 0 8.262 0s4.143.441 5.618 1.22c1.408.743 2.644 1.968 2.644 3.711 0 1.714-1.204 3.031-2.616 3.864-1.478.87-3.472 1.403-5.646 1.403s-4.168-.532-5.646-1.403C1.203 7.962 0 6.645 0 4.931 0 3.188 1.236 1.963 2.644 1.22zM4.207 11.202c.403 0 .73.402.73.898 0 .592.472 1.452 1.785 2.219 1.246.728 3.018 1.217 5.016 1.217 1.998 0 3.77-.489 5.016-1.217 1.313-.768 1.785-1.627 1.785-2.219 0-.496.327-.898.73-.898.404 0 .731.402.731.898v2.8c0 1.736-1.218 3.008-2.63 3.795-1.477.822-3.468 1.305-5.632 1.305-2.164 0-4.154-.483-5.631-1.305-1.413-.787-2.63-2.06-2.63-3.794v-2.8c0-.497.326-.899.73-.899zm.749 3.914c.098.573.594 1.296 1.754 1.942 1.246.694 3.021 1.145 5.028 1.145 2.007 0 3.783-.45 5.029-1.145 1.16-.646 1.655-1.37 1.753-1.942a6.89 6.89 0 01-1.138.825c-1.477.864-3.471 1.392-5.644 1.392s-4.167-.528-5.643-1.392a6.888 6.888 0 01-1.139-.825z" fill="#2C3437"/><path fill-rule="evenodd" clip-rule="evenodd" d="M3.246 7.318c1.246.728 3.018 1.217 5.016 1.217 1.998 0 3.77-.489 5.016-1.217 1.313-.768 1.785-1.627 1.785-2.219h1.46v2.8c0 1.735-1.217 3.007-2.63 3.794C12.416 12.516 10.426 13 8.262 13s-4.155-.483-5.631-1.306C1.218 10.906 0 9.634 0 7.9V5.1h1.46c0 .59.473 1.45 1.786 2.218zm-1.766.797c.098.572.594 1.296 1.753 1.942 1.246.694 3.022 1.145 5.029 1.145s3.782-.45 5.028-1.145c1.16-.646 1.655-1.37 1.754-1.942-.347.313-.735.589-1.139.825-1.476.864-3.47 1.392-5.643 1.392-2.173 0-4.167-.528-5.644-1.392a6.885 6.885 0 01-1.138-.825z" fill="#2C3437"/></svg>