<svg width="33" height="33" fill="none" xmlns="http://www.w3.org/2000/svg"><circle cx="16.5" cy="16.5" r="16.5" fill="#BFBFBF"/><path d="M7.714 16.809l3.793 1.415 1.479 4.757c.064.322.45.386.707.193l2.122-1.736c.193-.193.514-.193.771 0l3.794 2.765c.257.193.643.064.707-.257l2.83-13.502c.063-.322-.258-.643-.58-.515L7.714 15.973c-.386.129-.386.707 0 .836zm5.079.707l7.458-4.565c.129-.064.257.129.129.193l-6.108 5.722c-.193.193-.386.45-.386.772l-.193 1.543c0 .193-.321.257-.386 0l-.771-2.829c-.193-.321-.064-.707.257-.836z" fill="#fff"/></svg>