<svg width="24" height="28" viewBox="0 0 24 28" fill="none" xmlns="http://www.w3.org/2000/svg">
<path fill-rule="evenodd" clip-rule="evenodd" d="M1.70634 5.54557L10.3744 0.453835C10.8815 0.154678 11.4566 -0.00187136 12.0416 1.68812e-05C12.6265 0.00190512 13.2007 0.162158 13.706 0.464583L22.3423 5.61792C22.8467 5.91996 23.2652 6.35231 23.5561 6.87191C23.8469 7.39151 24 7.98022 24 8.57939L23.966 18.8306C23.9627 19.431 23.8061 20.0201 23.5116 20.539C23.2171 21.0579 22.7951 21.4885 22.2877 21.7879L13.6221 26.8787C13.1147 27.1782 12.5392 27.335 11.9538 27.3332C11.3685 27.3315 10.7938 27.1713 10.2881 26.8689L1.64939 21.7141C1.14659 21.4099 0.72995 20.9762 0.440666 20.4561C0.151382 19.9359 -0.000484467 19.3473 6.29425e-05 18.7484L0.0338573 8.49727C0.0377502 7.89842 0.194126 7.31101 0.487488 6.79327C0.780849 6.27552 1.20102 5.84541 1.70634 5.54557ZM10.8561 4.91608L4.64048 8.33173C4.27798 8.53266 3.97652 8.82103 3.76595 9.16825C3.55537 9.51546 3.44305 9.90947 3.44006 10.3112L3.4157 17.1876C3.41536 17.5893 3.52428 17.9842 3.73173 18.3331C3.93918 18.6821 4.23797 18.973 4.59851 19.1772L10.793 22.635C11.1557 22.8379 11.5677 22.9453 11.9875 22.9464C12.4073 22.9475 12.82 22.8423 13.1838 22.6414L19.398 19.2268C19.7617 19.026 20.0641 18.7372 20.2753 18.3892C20.4864 18.0413 20.5988 17.6462 20.6012 17.2436L20.6255 10.3669C20.6256 9.965 20.5159 9.57009 20.3073 9.22156C20.0988 8.87303 19.7987 8.58306 19.4369 8.38055L13.2452 4.9235C12.8828 4.72062 12.4711 4.6131 12.0516 4.6118C11.6321 4.61049 11.2197 4.71546 10.8561 4.91608Z" fill="url(#paint0_linear)"/>
<path fill-rule="evenodd" clip-rule="evenodd" d="M11.1425 7.47886L6.75502 9.86772C6.49913 10.0082 6.28634 10.2099 6.13769 10.4528C5.98905 10.6956 5.90977 10.9712 5.90766 11.2521L5.89046 16.0614C5.89022 16.3424 5.96711 16.6185 6.11354 16.8626C6.25998 17.1066 6.47089 17.3101 6.72539 17.4529L11.098 19.8712C11.354 20.0131 11.6448 20.0883 11.9412 20.089C12.2375 20.0898 12.5288 20.0162 12.7856 19.8757L17.1721 17.4876C17.4288 17.3471 17.6423 17.1452 17.7913 16.9018C17.9404 16.6584 18.0197 16.3822 18.0214 16.1005L18.0386 11.2911C18.0386 11.01 17.9612 10.7338 17.814 10.4901C17.6668 10.2463 17.4549 10.0435 17.1996 9.90186L12.8289 7.48405C12.5731 7.34216 12.2825 7.26696 11.9864 7.26605C11.6903 7.26513 11.3992 7.33854 11.1425 7.47886ZM12.9295 13.6712L15.2377 10.8537H13.2452L11.9333 12.4551L10.6213 10.8537H8.62875L10.937 13.6712L8.63754 16.4779H10.63L11.9333 14.8872L13.2365 16.4779H15.229L12.9295 13.6712Z" fill="#FF9D72"/>
<defs>
<linearGradient id="paint0_linear" x1="17.1386" y1="28.683" x2="7.9525" y2="-1.18764" gradientUnits="userSpaceOnUse">
<stop stop-color="#FF9372"/>
<stop offset="1" stop-color="#FFD770"/>
</linearGradient>
</defs>
</svg>
