<svg width="35" height="14" viewBox="0 0 35 14" fill="none" xmlns="http://www.w3.org/2000/svg">
<path d="M0.107602 12.858C0.107602 9.88203 1.5956 7.60203 4.5716 6.01803C5.1836 5.69403 5.6636 5.36403 6.0116 5.02803C6.3596 4.68003 6.5336 4.26003 6.5336 3.76803C6.5336 3.27603 6.3536 2.87403 5.9936 2.56203C5.6456 2.25003 5.1836 2.09403 4.6076 2.09403C3.4796 2.09403 2.6936 2.61003 2.2496 3.64203L0.305602 2.76003C0.641602 1.93203 1.1936 1.27203 1.9616 0.780032C2.7296 0.288032 3.6056 0.042032 4.5896 0.042032C5.8496 0.042032 6.8516 0.390032 7.5956 1.08603C8.3396 1.78203 8.7116 2.67603 8.7116 3.76803C8.7116 4.75203 8.4596 5.53203 7.9556 6.10803C7.4636 6.67203 6.6956 7.24203 5.6516 7.81803C4.7756 8.29803 4.1036 8.76603 3.6356 9.22203C3.1676 9.67803 2.8556 10.194 2.6996 10.77H8.8196V12.858H0.107602ZM13.1267 12.678C12.8507 12.942 12.5087 13.074 12.1007 13.074C11.6927 13.074 11.3507 12.942 11.0747 12.678C10.7987 12.402 10.6607 12.066 10.6607 11.67C10.6607 11.274 10.7987 10.944 11.0747 10.68C11.3507 10.404 11.6927 10.266 12.1007 10.266C12.5087 10.266 12.8507 10.404 13.1267 10.68C13.4027 10.956 13.5407 11.286 13.5407 11.67C13.5407 12.066 13.4027 12.402 13.1267 12.678ZM19.4883 13.074C18.4203 13.074 17.5023 12.816 16.7343 12.3C15.9783 11.772 15.4143 11.052 15.0423 10.14L17.0223 9.34803C17.5503 10.464 18.3843 11.022 19.5243 11.022C20.1603 11.022 20.6823 10.866 21.0903 10.554C21.4983 10.23 21.7023 9.77403 21.7023 9.18603C21.7023 8.64603 21.5223 8.20203 21.1623 7.85403C20.8023 7.50603 20.2563 7.33203 19.5243 7.33203H18.4263V5.28003H19.5243C20.0403 5.28003 20.4543 5.13603 20.7663 4.84803C21.0903 4.56003 21.2523 4.18203 21.2523 3.71403C21.2523 3.22203 21.0963 2.83203 20.7843 2.54403C20.4843 2.24403 20.0523 2.09403 19.4883 2.09403C18.5883 2.09403 17.9103 2.52003 17.4543 3.37203L15.4743 2.61603C15.8223 1.82403 16.3443 1.20003 17.0403 0.744032C17.7363 0.276032 18.5643 0.042032 19.5243 0.042032C20.6643 0.042032 21.6003 0.378032 22.3323 1.05003C23.0763 1.71003 23.4483 2.53203 23.4483 3.51603C23.4483 4.75203 22.9203 5.65803 21.8643 6.23403C22.4763 6.47403 22.9683 6.84603 23.3403 7.35003C23.7123 7.85403 23.8983 8.45403 23.8983 9.15003C23.8983 10.386 23.4903 11.352 22.6743 12.048C21.8703 12.732 20.8083 13.074 19.4883 13.074ZM25.6184 12.858L28.8044 8.07003L25.8524 3.66003H28.2824L29.5244 5.53203C29.8124 5.96403 29.9804 6.24003 30.0284 6.36003C30.2324 5.98803 30.3944 5.71203 30.5144 5.53203L31.7744 3.66003H34.2044L31.2344 8.07003L34.4384 12.858H32.0084L30.5144 10.626C30.3944 10.446 30.2324 10.17 30.0284 9.79803C29.9444 9.99003 29.7764 10.266 29.5244 10.626L28.0484 12.858H25.6184Z" fill="#30DB9E"/>
</svg>